<?xml version="1.0" encoding="utf-8"?>
<!-- Generator: Adobe Illustrator 24.1.0, SVG Export Plug-In . SVG Version: 6.00 Build 0)  -->
<svg version="1.1" id="Capa_1" xmlns="http://www.w3.org/2000/svg" xmlns:xlink="http://www.w3.org/1999/xlink" x="0px" y="0px"
	 viewBox="0 0 400 299.9" style="enable-background:new 0 0 400 299.9;" xml:space="preserve">
<style type="text/css">
	.st0{fill:#FFFFFF;}
	.st1{fill:#00517A;}
	.st2{fill:#A0D5F4;}
	.st3{fill:#CCCCCC;}
</style>
<path class="st0" d="M392.1,217.3H7.9V113.9c0-37.9,30.7-68.6,68.6-68.6h247.1c37.9,0,68.6,30.7,68.6,68.6V217.3z"/>
<g>
	<path class="st1" d="M7.9,217.3h52.2v38.1H7.9V217.3z"/>
	<path class="st1" d="M128.9,217.3h68.8v38.1h-68.8V217.3z"/>
	<path class="st1" d="M60.1,217.3h68.8v38.1H60.1V217.3z"/>
	<path class="st1" d="M197.7,217.3h68.8v38.1h-68.8V217.3z"/>
	<path class="st1" d="M335.3,217.3h56.8v38.1h-56.8V217.3z"/>
	<path class="st1" d="M266.5,217.3h68.8v38.1h-68.8V217.3z"/>
</g>
<path class="st2" d="M170.9,80.2h21v104.3H41v-74.4c0-16.5,13.4-29.8,29.8-29.8h37.5"/>
<path class="st0" d="M226.6,94.9H255v28.4h-28.4V94.9z"/>
<path class="st0" d="M275.9,94.9h28.4v28.4h-28.4V94.9z"/>
<path class="st0" d="M325.2,94.9h28.4v28.4h-28.4V94.9z"/>
<path class="st0" d="M226.6,143.3H255v28.4h-28.4V143.3z"/>
<path class="st0" d="M275.9,143.3h28.4v28.4h-28.4V143.3z"/>
<path class="st0" d="M325.2,143.3h28.4v28.4h-28.4V143.3z"/>
<path class="st3" d="M323.5,37.2h-9.2V16h49.4c4.4,0,7.9-3.5,7.9-7.9c0-4.4-3.5-7.9-7.9-7.9H232.5c-4.4,0-7.9,3.5-7.9,7.9
	c0,4.4,3.5,7.9,7.9,7.9h66.1v21.2H101.4V16h67.2c4.4,0,7.9-3.5,7.9-7.9c0-4.4-3.5-7.9-7.9-7.9H36.3c-4.4,0-7.9,3.5-7.9,7.9
	c0,4.4,3.5,7.9,7.9,7.9h49.4v21.2h-9.2C34.3,37.2,0,71.5,0,113.7v141.4c0,4.4,3.5,7.9,7.9,7.9h77.8v21.2H56.8
	c-4.4,0-7.9,3.5-7.9,7.9c0,4.4,3.5,7.9,7.9,7.9h286.3c4.4,0,7.9-3.5,7.9-7.9c0-4.4-3.5-7.9-7.9-7.9h-28.8V263h77.8
	c4.4,0,7.9-3.5,7.9-7.9V113.7C400,71.5,365.7,37.2,323.5,37.2z M76.5,53h247.1c33.5,0,60.7,27.2,60.7,60.7v95.5H15.8v-95.5
	C15.8,80.2,43,53,76.5,53z M274.4,247.2v-22.3h53v22.3H274.4z M258.6,247.2h-53v-22.3h53V247.2z M189.8,247.2h-53v-22.3h53V247.2z
	 M15.8,224.9h36.5v22.3H15.8V224.9z M68,224.9h53v22.3H68V224.9z M298.6,284.2H101.4V263h197.1V284.2z M343.2,247.2v-22.3h41.1v22.3
	H343.2z"/>
<path class="st3" d="M41,192.1h150.9c4.4,0,7.9-3.5,7.9-7.9V80c0-4.4-3.5-7.9-7.9-7.9h-21c-4.4,0-7.9,3.5-7.9,7.9
	c0,4.4,3.5,7.9,7.9,7.9H184v88.5H48.9v-66.6c0-12.1,9.8-21.9,21.9-21.9h37.5c4.4,0,7.9-3.5,7.9-7.9c0-4.4-3.5-7.9-7.9-7.9H70.9
	c-20.8,0-37.7,16.9-37.7,37.7v74.4C33.2,188.6,36.7,192.1,41,192.1z"/>
<path class="st3" d="M226.6,131H255c4.4,0,7.9-3.5,7.9-7.9V94.7c0-4.4-3.5-7.9-7.9-7.9h-28.4c-4.4,0-7.9,3.5-7.9,7.9v28.4
	C218.7,127.4,222.2,131,226.6,131z M234.5,102.6h12.6v12.6h-12.6V102.6z"/>
<path class="st3" d="M275.9,131h28.4c4.4,0,7.9-3.5,7.9-7.9V94.7c0-4.4-3.5-7.9-7.9-7.9h-28.4c-4.4,0-7.9,3.5-7.9,7.9v28.4
	C268,127.4,271.6,131,275.9,131z M283.8,102.6h12.6v12.6h-12.6V102.6z"/>
<path class="st3" d="M325.2,131h28.4c4.4,0,7.9-3.5,7.9-7.9V94.7c0-4.4-3.5-7.9-7.9-7.9h-28.4c-4.4,0-7.9,3.5-7.9,7.9v28.4
	C317.4,127.4,320.9,131,325.2,131z M333.1,102.6h12.6v12.6h-12.6V102.6z"/>
<path class="st3" d="M226.6,179.3H255c4.4,0,7.9-3.5,7.9-7.9V143c0-4.4-3.5-7.9-7.9-7.9h-28.4c-4.4,0-7.9,3.5-7.9,7.9v28.4
	C218.7,175.8,222.2,179.3,226.6,179.3z M234.5,150.9h12.6v12.6h-12.6V150.9z"/>
<path class="st3" d="M275.9,179.3h28.4c4.4,0,7.9-3.5,7.9-7.9V143c0-4.4-3.5-7.9-7.9-7.9h-28.4c-4.4,0-7.9,3.5-7.9,7.9v28.4
	C268,175.8,271.6,179.3,275.9,179.3z M283.8,150.9h12.6v12.6h-12.6V150.9z"/>
<path class="st3" d="M325.2,179.3h28.4c4.4,0,7.9-3.5,7.9-7.9V143c0-4.4-3.5-7.9-7.9-7.9h-28.4c-4.4,0-7.9,3.5-7.9,7.9v28.4
	C317.4,175.8,320.9,179.3,325.2,179.3z M333.1,150.9h12.6v12.6h-12.6V150.9z"/>
<path class="st1" d="M76.6,146.3c-0.6,0-3.7-0.1-3.7-2.2c0-3.5-2-5.1-6.4-5.1c-4.2,0-6.4,2-6.4,5.8c0,6.4,5.7,13,16.7,13
	c10.5,0,16.5-5.7,16.5-15.7v-1.2c0-9.6-5.9-14.9-16.6-14.9h-2.3l0.4-5h11.9c2.6,0,4.3-2.4,4.3-5.7s-1.8-5.7-4.3-5.7H67.2
	c-1.3,0-2.9,0.8-3.3,4.3l-1.7,15.4l0,0.4c0,0.5-0.1,1-0.1,1.6c0,4.4,2.9,5.3,5.2,5.3h9.3c1.7,0,3.9,0.5,3.9,4.4v1.2
	C80.6,145,79.4,146.3,76.6,146.3z"/>
<path class="st1" d="M113.4,114c0-2.7-2.6-4.5-6.4-4.5s-6.4,1.8-6.4,4.5v38.9c0,2.7,2.6,4.5,6.4,4.5c3.7,0,6.4-1.9,6.4-4.5v-10.5
	l0.9-1.1l9.2,14c1,1.6,2.7,2.5,4.6,2.5c3.7,0,7.3-3.1,7.3-6.4c0-0.8-0.3-1.7-0.7-2.5l-12-18.4l9.4-11.8c0.8-1,0.9-2.1,0.9-2.8
	c0-3.4-4-6.5-7.2-6.5c-1.6,0-2.9,0.7-3.8,2l-8.6,12.2L113.4,114L113.4,114z"/>
<path class="st1" d="M156.8,121c3.5,0,3.8,1.5,3.9,4c0,1.6,0.9,4.4,6.4,4.4c3.1,0,6.4-0.7,6.4-6.1c0-8.2-6.8-13.8-16.9-13.8
	c-10.3,0-16.3,5.8-16.3,16v16.2c0,10.2,6,16,16.6,16c10.6,0,16.6-5.8,16.6-16v-6.4c0-2.6-1.9-4.6-4.5-4.6h-10.3
	c-2.8,0-4.5,2.7-4.5,5.2c0,3,1.9,5.2,4.5,5.2h2v0.5c0,4-2.1,4.5-3.9,4.5c-1.8,0-3.9-0.5-3.9-4.5v-16.2
	C152.8,121.5,154.9,121,156.8,121z"/>
<path class="st3" d="M132.2,83c1.1,3.2,4.2,5.3,7.4,5.3c0.9,0,1.8-0.1,2.6-0.5c4.1-1.5,6.3-6,4.8-10.1l-0.1-0.4
	c-1.5-4.1-6-6.3-10.1-4.8c-4.1,1.5-6.3,6-4.8,10.1L132.2,83z"/>
<path class="st3" d="M193.2,10.9c1.1,3.2,4.2,5.2,7.4,5.2c0.9,0,1.8-0.1,2.6-0.5c4.1-1.5,6.2-6,4.8-10.1l-0.1-0.4
	c-1.5-4.1-6-6.2-10.1-4.8c-4.1,1.5-6.2,6-4.8,10.1L193.2,10.9z"/>
</svg>
